<mxfile host="app.diagrams.net" modified="2020-09-21T14:33:47.003Z" agent="5.0 (Macintosh; Intel Mac OS X 10_15_6) AppleWebKit/605.1.15 (KHTML, like Gecko) Version/13.1.2 Safari/605.1.15" etag="DReJrXSIY71Qv0LqN0m2" version="13.7.3" type="github">
  <diagram id="dECgLbt5gwb4kdzm95Aq" name="Page-3">
    <mxGraphModel dx="-41" dy="539" grid="1" gridSize="10" guides="1" tooltips="1" connect="1" arrows="1" fold="1" page="1" pageScale="1" pageWidth="827" pageHeight="1169" math="0" shadow="0">
      <root>
        <mxCell id="CYz07_u8bfLaDcwgtj9p-0" />
        <mxCell id="CYz07_u8bfLaDcwgtj9p-1" parent="CYz07_u8bfLaDcwgtj9p-0" />
        <mxCell id="CYz07_u8bfLaDcwgtj9p-234" value="MOVIE" style="whiteSpace=wrap;html=1;align=center;" parent="CYz07_u8bfLaDcwgtj9p-1" vertex="1">
          <mxGeometry x="1310" y="658.33" width="100" height="40" as="geometry" />
        </mxCell>
        <mxCell id="CYz07_u8bfLaDcwgtj9p-238" value="GENRE" style="whiteSpace=wrap;html=1;align=center;" parent="CYz07_u8bfLaDcwgtj9p-1" vertex="1">
          <mxGeometry x="1779" y="753.33" width="100" height="40" as="geometry" />
        </mxCell>
        <mxCell id="CYz07_u8bfLaDcwgtj9p-243" value="(1,n)&lt;br&gt;Providing movie" style="endArrow=none;html=1;rounded=0;entryX=0;entryY=0.25;entryDx=0;entryDy=0;shape=link;exitX=0.5;exitY=1;exitDx=0;exitDy=0;" parent="CYz07_u8bfLaDcwgtj9p-1" source="CYz07_u8bfLaDcwgtj9p-296" target="CYz07_u8bfLaDcwgtj9p-234" edge="1">
          <mxGeometry relative="1" as="geometry">
            <mxPoint x="1320" y="524.9999999999998" as="sourcePoint" />
            <mxPoint x="1160" y="594.9999999999998" as="targetPoint" />
          </mxGeometry>
        </mxCell>
        <mxCell id="CYz07_u8bfLaDcwgtj9p-244" value="(1,1)&lt;br&gt;Provided version" style="endArrow=none;html=1;rounded=0;exitX=0.5;exitY=0;exitDx=0;exitDy=0;shape=link;entryX=0.5;entryY=1;entryDx=0;entryDy=0;" parent="CYz07_u8bfLaDcwgtj9p-1" source="CYz07_u8bfLaDcwgtj9p-296" target="CYz07_u8bfLaDcwgtj9p-295" edge="1">
          <mxGeometry relative="1" as="geometry">
            <mxPoint x="1210" y="460" as="sourcePoint" />
            <mxPoint x="1090" y="400" as="targetPoint" />
          </mxGeometry>
        </mxCell>
        <mxCell id="CYz07_u8bfLaDcwgtj9p-246" value="(1,n)&lt;br&gt;Rating" style="endArrow=none;html=1;rounded=0;shape=link;entryX=0.5;entryY=0;entryDx=0;entryDy=0;exitX=1;exitY=1;exitDx=0;exitDy=0;" parent="CYz07_u8bfLaDcwgtj9p-1" source="CYz07_u8bfLaDcwgtj9p-262" target="CYz07_u8bfLaDcwgtj9p-267" edge="1">
          <mxGeometry relative="1" as="geometry">
            <mxPoint x="1230" y="540" as="sourcePoint" />
            <mxPoint x="1330" y="589.9999999999998" as="targetPoint" />
          </mxGeometry>
        </mxCell>
        <mxCell id="CYz07_u8bfLaDcwgtj9p-247" value="TAKE" style="shape=rhombus;perimeter=rhombusPerimeter;whiteSpace=wrap;html=1;align=center;" parent="CYz07_u8bfLaDcwgtj9p-1" vertex="1">
          <mxGeometry x="1550" y="700" width="120" height="60" as="geometry" />
        </mxCell>
        <mxCell id="CYz07_u8bfLaDcwgtj9p-248" value="(1,m)&lt;br&gt;&lt;span style=&quot;font-size: 12px ; background-color: rgb(248 , 249 , 250)&quot;&gt;Taking Movie&lt;/span&gt;" style="endArrow=none;html=1;rounded=0;exitX=1;exitY=0.5;exitDx=0;exitDy=0;entryX=0;entryY=0.5;entryDx=0;entryDy=0;shape=link;" parent="CYz07_u8bfLaDcwgtj9p-1" source="CYz07_u8bfLaDcwgtj9p-234" target="CYz07_u8bfLaDcwgtj9p-247" edge="1">
          <mxGeometry relative="1" as="geometry">
            <mxPoint x="1540" y="530" as="sourcePoint" />
            <mxPoint x="1420" y="589.9999999999998" as="targetPoint" />
          </mxGeometry>
        </mxCell>
        <mxCell id="CYz07_u8bfLaDcwgtj9p-249" value="(0,n)&lt;br&gt;&lt;span style=&quot;font-size: 12px ; background-color: rgb(248 , 249 , 250)&quot;&gt;Taken Genre&lt;/span&gt;" style="endArrow=none;html=1;rounded=0;exitX=1;exitY=0.5;exitDx=0;exitDy=0;entryX=0;entryY=0.5;entryDx=0;entryDy=0;" parent="CYz07_u8bfLaDcwgtj9p-1" source="CYz07_u8bfLaDcwgtj9p-247" target="CYz07_u8bfLaDcwgtj9p-238" edge="1">
          <mxGeometry relative="1" as="geometry">
            <mxPoint x="1550" y="540" as="sourcePoint" />
            <mxPoint x="1430" y="599.9999999999998" as="targetPoint" />
          </mxGeometry>
        </mxCell>
        <mxCell id="CYz07_u8bfLaDcwgtj9p-251" value="(0,1)&lt;br&gt;Containing series" style="endArrow=none;html=1;rounded=0;entryX=0.5;entryY=0;entryDx=0;entryDy=0;" parent="CYz07_u8bfLaDcwgtj9p-1" source="CYz07_u8bfLaDcwgtj9p-272" target="CYz07_u8bfLaDcwgtj9p-234" edge="1">
          <mxGeometry x="-0.0526" relative="1" as="geometry">
            <mxPoint x="1220" y="530" as="sourcePoint" />
            <mxPoint x="1320" y="580" as="targetPoint" />
            <mxPoint as="offset" />
          </mxGeometry>
        </mxCell>
        <mxCell id="CYz07_u8bfLaDcwgtj9p-252" value="(1,n)&lt;br&gt;Contained episode" style="endArrow=none;html=1;rounded=0;exitX=0.5;exitY=1;exitDx=0;exitDy=0;shape=link;" parent="CYz07_u8bfLaDcwgtj9p-1" source="CYz07_u8bfLaDcwgtj9p-285" target="CYz07_u8bfLaDcwgtj9p-272" edge="1">
          <mxGeometry x="0.1525" relative="1" as="geometry">
            <mxPoint x="1230" y="540" as="sourcePoint" />
            <mxPoint x="1360" y="460" as="targetPoint" />
            <mxPoint as="offset" />
          </mxGeometry>
        </mxCell>
        <mxCell id="CYz07_u8bfLaDcwgtj9p-253" value="(1,n)&lt;br&gt;&lt;span style=&quot;font-size: 12px ; background-color: rgb(248 , 249 , 250)&quot;&gt;Provoding episode&lt;/span&gt;" style="endArrow=none;html=1;rounded=0;shape=link;entryX=0.817;entryY=0.283;entryDx=0;entryDy=0;exitX=0.5;exitY=1;exitDx=0;exitDy=0;entryPerimeter=0;" parent="CYz07_u8bfLaDcwgtj9p-1" source="CYz07_u8bfLaDcwgtj9p-285" target="CYz07_u8bfLaDcwgtj9p-296" edge="1">
          <mxGeometry relative="1" as="geometry">
            <mxPoint x="1310" y="410" as="sourcePoint" />
            <mxPoint x="1210" y="460" as="targetPoint" />
          </mxGeometry>
        </mxCell>
        <mxCell id="CYz07_u8bfLaDcwgtj9p-254" value="(0,m)&lt;br&gt;Evaluated episode" style="endArrow=none;html=1;rounded=0;exitX=0.5;exitY=0;exitDx=0;exitDy=0;" parent="CYz07_u8bfLaDcwgtj9p-1" source="CYz07_u8bfLaDcwgtj9p-267" target="CYz07_u8bfLaDcwgtj9p-285" edge="1">
          <mxGeometry relative="1" as="geometry">
            <mxPoint x="1230" y="480" as="sourcePoint" />
            <mxPoint x="1410" y="410" as="targetPoint" />
          </mxGeometry>
        </mxCell>
        <mxCell id="CYz07_u8bfLaDcwgtj9p-256" value="(0,1)&lt;br&gt;&lt;span style=&quot;font-size: 12px ; background-color: rgb(248 , 249 , 250)&quot;&gt;Evaluator&lt;/span&gt;" style="endArrow=none;html=1;rounded=0;" parent="CYz07_u8bfLaDcwgtj9p-1" source="CYz07_u8bfLaDcwgtj9p-318" target="CYz07_u8bfLaDcwgtj9p-317" edge="1">
          <mxGeometry relative="1" as="geometry">
            <mxPoint x="1680" y="570" as="sourcePoint" />
            <mxPoint x="1680" y="520" as="targetPoint" />
          </mxGeometry>
        </mxCell>
        <mxCell id="CYz07_u8bfLaDcwgtj9p-257" value="(1,n)&lt;br&gt;&lt;span style=&quot;font-size: 12px ; background-color: rgb(248 , 249 , 250)&quot;&gt;Evaluated rating&lt;/span&gt;" style="endArrow=none;html=1;rounded=0;shape=link;entryX=0.5;entryY=0;entryDx=0;entryDy=0;exitX=1;exitY=0;exitDx=0;exitDy=0;" parent="CYz07_u8bfLaDcwgtj9p-1" source="CYz07_u8bfLaDcwgtj9p-262" target="CYz07_u8bfLaDcwgtj9p-317" edge="1">
          <mxGeometry x="0.0103" y="11" relative="1" as="geometry">
            <mxPoint x="1680" y="280" as="sourcePoint" />
            <mxPoint x="1130" y="440" as="targetPoint" />
            <mxPoint as="offset" />
          </mxGeometry>
        </mxCell>
        <mxCell id="CYz07_u8bfLaDcwgtj9p-262" value="Rating" style="shape=ext;margin=3;double=1;whiteSpace=wrap;html=1;align=center;" parent="CYz07_u8bfLaDcwgtj9p-1" vertex="1">
          <mxGeometry x="1620" y="400" width="100" height="40" as="geometry" />
        </mxCell>
        <mxCell id="CYz07_u8bfLaDcwgtj9p-267" value="EVALUATED AS" style="shape=rhombus;double=1;perimeter=rhombusPerimeter;whiteSpace=wrap;html=1;align=center;" parent="CYz07_u8bfLaDcwgtj9p-1" vertex="1">
          <mxGeometry x="1490" y="525" width="120" height="60" as="geometry" />
        </mxCell>
        <mxCell id="CYz07_u8bfLaDcwgtj9p-269" value="CHARACTER" style="shape=ext;margin=3;double=1;whiteSpace=wrap;html=1;align=center;" parent="CYz07_u8bfLaDcwgtj9p-1" vertex="1">
          <mxGeometry x="930" y="575" width="100" height="40" as="geometry" />
        </mxCell>
        <mxCell id="CYz07_u8bfLaDcwgtj9p-271" value="(1,n)&lt;br&gt;Appearing character" style="endArrow=none;html=1;rounded=0;exitX=1;exitY=0.5;exitDx=0;exitDy=0;entryX=0.5;entryY=0;entryDx=0;entryDy=0;shape=link;" parent="CYz07_u8bfLaDcwgtj9p-1" source="CYz07_u8bfLaDcwgtj9p-269" target="CYz07_u8bfLaDcwgtj9p-294" edge="1">
          <mxGeometry x="0.0309" y="5" relative="1" as="geometry">
            <mxPoint x="1230" y="540" as="sourcePoint" />
            <mxPoint x="1330" y="590" as="targetPoint" />
            <Array as="points" />
            <mxPoint as="offset" />
          </mxGeometry>
        </mxCell>
        <mxCell id="CYz07_u8bfLaDcwgtj9p-272" value="CONTAIN" style="shape=rhombus;double=1;perimeter=rhombusPerimeter;whiteSpace=wrap;html=1;align=center;" parent="CYz07_u8bfLaDcwgtj9p-1" vertex="1">
          <mxGeometry x="1300" y="525" width="120" height="60" as="geometry" />
        </mxCell>
        <mxCell id="CYz07_u8bfLaDcwgtj9p-277" value="PLAY" style="shape=rhombus;double=1;perimeter=rhombusPerimeter;whiteSpace=wrap;html=1;align=center;" parent="CYz07_u8bfLaDcwgtj9p-1" vertex="1">
          <mxGeometry x="920" y="710" width="120" height="60" as="geometry" />
        </mxCell>
        <mxCell id="CYz07_u8bfLaDcwgtj9p-279" value="(1,n)&lt;br&gt;Played character" style="endArrow=none;html=1;rounded=0;exitX=0.5;exitY=1;exitDx=0;exitDy=0;entryX=0.5;entryY=0;entryDx=0;entryDy=0;shape=link;" parent="CYz07_u8bfLaDcwgtj9p-1" source="CYz07_u8bfLaDcwgtj9p-269" target="CYz07_u8bfLaDcwgtj9p-277" edge="1">
          <mxGeometry x="-0.0526" relative="1" as="geometry">
            <mxPoint x="1370" y="530" as="sourcePoint" />
            <mxPoint x="1370" y="580" as="targetPoint" />
            <mxPoint as="offset" />
          </mxGeometry>
        </mxCell>
        <mxCell id="CYz07_u8bfLaDcwgtj9p-290" value="ACTOR" style="whiteSpace=wrap;html=1;align=center;" parent="CYz07_u8bfLaDcwgtj9p-1" vertex="1">
          <mxGeometry x="1051" y="778.33" width="100" height="40" as="geometry" />
        </mxCell>
        <mxCell id="CYz07_u8bfLaDcwgtj9p-291" value="(0,1)&lt;br&gt;Playing actor" style="endArrow=none;html=1;rounded=0;exitX=1;exitY=0.5;exitDx=0;exitDy=0;entryX=0.639;entryY=-0.014;entryDx=0;entryDy=0;entryPerimeter=0;" parent="CYz07_u8bfLaDcwgtj9p-1" source="CYz07_u8bfLaDcwgtj9p-277" target="CYz07_u8bfLaDcwgtj9p-290" edge="1">
          <mxGeometry x="0.1111" relative="1" as="geometry">
            <mxPoint x="1220" y="530" as="sourcePoint" />
            <mxPoint x="1320" y="580" as="targetPoint" />
            <mxPoint as="offset" />
          </mxGeometry>
        </mxCell>
        <mxCell id="CYz07_u8bfLaDcwgtj9p-294" value="APPEAR IN" style="shape=rhombus;double=1;perimeter=rhombusPerimeter;whiteSpace=wrap;html=1;align=center;" parent="CYz07_u8bfLaDcwgtj9p-1" vertex="1">
          <mxGeometry x="1100" y="648.33" width="120" height="60" as="geometry" />
        </mxCell>
        <mxCell id="CYz07_u8bfLaDcwgtj9p-295" value="VERSION" style="shape=ext;margin=3;double=1;whiteSpace=wrap;html=1;align=center;" parent="CYz07_u8bfLaDcwgtj9p-1" vertex="1">
          <mxGeometry x="1020" y="420" width="100" height="40" as="geometry" />
        </mxCell>
        <mxCell id="CYz07_u8bfLaDcwgtj9p-296" value="PROVIDE" style="shape=rhombus;double=1;perimeter=rhombusPerimeter;whiteSpace=wrap;html=1;align=center;" parent="CYz07_u8bfLaDcwgtj9p-1" vertex="1">
          <mxGeometry x="1100" y="525" width="120" height="60" as="geometry" />
        </mxCell>
        <mxCell id="CYz07_u8bfLaDcwgtj9p-301" value="(0,m)&lt;br&gt;movie" style="endArrow=none;html=1;rounded=0;exitX=1;exitY=0.5;exitDx=0;exitDy=0;entryX=0;entryY=0.5;entryDx=0;entryDy=0;" parent="CYz07_u8bfLaDcwgtj9p-1" source="CYz07_u8bfLaDcwgtj9p-294" target="CYz07_u8bfLaDcwgtj9p-234" edge="1">
          <mxGeometry x="-0.1542" y="4" relative="1" as="geometry">
            <mxPoint x="1370" y="530" as="sourcePoint" />
            <mxPoint x="1370" y="580" as="targetPoint" />
            <mxPoint as="offset" />
          </mxGeometry>
        </mxCell>
        <mxCell id="CYz07_u8bfLaDcwgtj9p-313" value="(0,m)&lt;br&gt;Evaluated Movie" style="endArrow=none;html=1;rounded=0;entryX=0.5;entryY=1;entryDx=0;entryDy=0;" parent="CYz07_u8bfLaDcwgtj9p-1" source="CYz07_u8bfLaDcwgtj9p-234" target="CYz07_u8bfLaDcwgtj9p-267" edge="1">
          <mxGeometry x="0.3493" y="-3" relative="1" as="geometry">
            <mxPoint x="1520" y="470" as="sourcePoint" />
            <mxPoint x="1420" y="420" as="targetPoint" />
            <mxPoint as="offset" />
          </mxGeometry>
        </mxCell>
        <mxCell id="CYz07_u8bfLaDcwgtj9p-317" value="EVALUATE" style="shape=rhombus;double=1;perimeter=rhombusPerimeter;whiteSpace=wrap;html=1;align=center;" parent="CYz07_u8bfLaDcwgtj9p-1" vertex="1">
          <mxGeometry x="1750" y="440" width="120" height="60" as="geometry" />
        </mxCell>
        <mxCell id="CYz07_u8bfLaDcwgtj9p-318" value="ACCOUNT" style="whiteSpace=wrap;html=1;align=center;" parent="CYz07_u8bfLaDcwgtj9p-1" vertex="1">
          <mxGeometry x="1760" y="575" width="100" height="40" as="geometry" />
        </mxCell>
        <mxCell id="CYz07_u8bfLaDcwgtj9p-285" value="EPISODE" style="shape=ext;margin=3;double=1;whiteSpace=wrap;html=1;align=center;" parent="CYz07_u8bfLaDcwgtj9p-1" vertex="1">
          <mxGeometry x="1310" y="400" width="100" height="40" as="geometry" />
        </mxCell>
        <mxCell id="CYz07_u8bfLaDcwgtj9p-326" value="Movie_id" style="ellipse;whiteSpace=wrap;html=1;align=center;fontStyle=4" parent="CYz07_u8bfLaDcwgtj9p-1" vertex="1">
          <mxGeometry x="1420" y="753.33" width="80" height="30" as="geometry" />
        </mxCell>
        <mxCell id="CYz07_u8bfLaDcwgtj9p-328" value="" style="endArrow=none;html=1;rounded=0;exitX=0.75;exitY=1;exitDx=0;exitDy=0;" parent="CYz07_u8bfLaDcwgtj9p-1" source="CYz07_u8bfLaDcwgtj9p-234" target="CYz07_u8bfLaDcwgtj9p-326" edge="1">
          <mxGeometry relative="1" as="geometry">
            <mxPoint x="1340" y="770" as="sourcePoint" />
            <mxPoint x="1500" y="770" as="targetPoint" />
          </mxGeometry>
        </mxCell>
        <mxCell id="CYz07_u8bfLaDcwgtj9p-329" value="Email_add" style="ellipse;whiteSpace=wrap;html=1;align=center;fontStyle=4" parent="CYz07_u8bfLaDcwgtj9p-1" vertex="1">
          <mxGeometry x="1654" y="610" width="80" height="25" as="geometry" />
        </mxCell>
        <mxCell id="CYz07_u8bfLaDcwgtj9p-330" value="" style="endArrow=none;html=1;rounded=0;" parent="CYz07_u8bfLaDcwgtj9p-1" source="CYz07_u8bfLaDcwgtj9p-318" target="CYz07_u8bfLaDcwgtj9p-329" edge="1">
          <mxGeometry relative="1" as="geometry">
            <mxPoint x="1810" y="615" as="sourcePoint" />
            <mxPoint x="1950" y="635" as="targetPoint" />
          </mxGeometry>
        </mxCell>
        <mxCell id="CYz07_u8bfLaDcwgtj9p-331" value="Genre_id" style="ellipse;whiteSpace=wrap;html=1;align=center;fontStyle=4" parent="CYz07_u8bfLaDcwgtj9p-1" vertex="1">
          <mxGeometry x="1820" y="803.33" width="100" height="40" as="geometry" />
        </mxCell>
        <mxCell id="CYz07_u8bfLaDcwgtj9p-332" value="" style="endArrow=none;html=1;rounded=0;" parent="CYz07_u8bfLaDcwgtj9p-1" source="CYz07_u8bfLaDcwgtj9p-238" target="CYz07_u8bfLaDcwgtj9p-331" edge="1">
          <mxGeometry relative="1" as="geometry">
            <mxPoint x="1810" y="740" as="sourcePoint" />
            <mxPoint x="1950" y="760" as="targetPoint" />
          </mxGeometry>
        </mxCell>
        <mxCell id="CYz07_u8bfLaDcwgtj9p-333" value="Actor_id" style="ellipse;whiteSpace=wrap;html=1;align=center;fontStyle=4" parent="CYz07_u8bfLaDcwgtj9p-1" vertex="1">
          <mxGeometry x="981" y="853.33" width="100" height="40" as="geometry" />
        </mxCell>
        <mxCell id="CYz07_u8bfLaDcwgtj9p-334" value="" style="endArrow=none;html=1;rounded=0;" parent="CYz07_u8bfLaDcwgtj9p-1" source="CYz07_u8bfLaDcwgtj9p-290" target="CYz07_u8bfLaDcwgtj9p-333" edge="1">
          <mxGeometry relative="1" as="geometry">
            <mxPoint x="1101" y="810" as="sourcePoint" />
            <mxPoint x="1241" y="830" as="targetPoint" />
          </mxGeometry>
        </mxCell>
        <mxCell id="CYz07_u8bfLaDcwgtj9p-337" value="&lt;span style=&quot;border-bottom: 1px dotted&quot;&gt;Episode_id&lt;/span&gt;" style="ellipse;whiteSpace=wrap;html=1;align=center;" parent="CYz07_u8bfLaDcwgtj9p-1" vertex="1">
          <mxGeometry x="1300" y="300" width="100" height="40" as="geometry" />
        </mxCell>
        <mxCell id="CYz07_u8bfLaDcwgtj9p-338" value="" style="endArrow=none;html=1;rounded=0;" parent="CYz07_u8bfLaDcwgtj9p-1" source="CYz07_u8bfLaDcwgtj9p-337" target="CYz07_u8bfLaDcwgtj9p-285" edge="1">
          <mxGeometry relative="1" as="geometry">
            <mxPoint x="1390" y="520" as="sourcePoint" />
            <mxPoint x="1550" y="520" as="targetPoint" />
          </mxGeometry>
        </mxCell>
        <mxCell id="CYz07_u8bfLaDcwgtj9p-339" value="&lt;span style=&quot;border-bottom: 1px dotted&quot;&gt;Version_id&lt;/span&gt;" style="ellipse;whiteSpace=wrap;html=1;align=center;" parent="CYz07_u8bfLaDcwgtj9p-1" vertex="1">
          <mxGeometry x="1010" y="270" width="100" height="40" as="geometry" />
        </mxCell>
        <mxCell id="CYz07_u8bfLaDcwgtj9p-340" value="" style="endArrow=none;html=1;rounded=0;" parent="CYz07_u8bfLaDcwgtj9p-1" source="CYz07_u8bfLaDcwgtj9p-339" target="CYz07_u8bfLaDcwgtj9p-295" edge="1">
          <mxGeometry relative="1" as="geometry">
            <mxPoint x="1080" y="520" as="sourcePoint" />
            <mxPoint x="1050" y="220" as="targetPoint" />
          </mxGeometry>
        </mxCell>
        <mxCell id="CYz07_u8bfLaDcwgtj9p-341" value="&lt;span style=&quot;border-bottom: 1px dotted&quot;&gt;Rating_id&lt;/span&gt;" style="ellipse;whiteSpace=wrap;html=1;align=center;" parent="CYz07_u8bfLaDcwgtj9p-1" vertex="1">
          <mxGeometry x="1675" y="345" width="100" height="40" as="geometry" />
        </mxCell>
        <mxCell id="CYz07_u8bfLaDcwgtj9p-342" value="" style="endArrow=none;html=1;rounded=0;" parent="CYz07_u8bfLaDcwgtj9p-1" source="CYz07_u8bfLaDcwgtj9p-341" target="CYz07_u8bfLaDcwgtj9p-262" edge="1">
          <mxGeometry relative="1" as="geometry">
            <mxPoint x="1840" y="540" as="sourcePoint" />
            <mxPoint x="1810" y="240" as="targetPoint" />
          </mxGeometry>
        </mxCell>
        <mxCell id="CYz07_u8bfLaDcwgtj9p-343" value="MEMBERSHIP" style="whiteSpace=wrap;html=1;align=center;" parent="CYz07_u8bfLaDcwgtj9p-1" vertex="1">
          <mxGeometry x="1930" y="555" width="100" height="40" as="geometry" />
        </mxCell>
        <mxCell id="CYz07_u8bfLaDcwgtj9p-344" value="Membership_title" style="ellipse;whiteSpace=wrap;html=1;align=center;fontStyle=4" parent="CYz07_u8bfLaDcwgtj9p-1" vertex="1">
          <mxGeometry x="1950" y="610" width="100" height="40" as="geometry" />
        </mxCell>
        <mxCell id="CYz07_u8bfLaDcwgtj9p-345" value="" style="endArrow=none;html=1;rounded=0;exitX=0.5;exitY=1;exitDx=0;exitDy=0;" parent="CYz07_u8bfLaDcwgtj9p-1" source="CYz07_u8bfLaDcwgtj9p-343" target="CYz07_u8bfLaDcwgtj9p-344" edge="1">
          <mxGeometry relative="1" as="geometry">
            <mxPoint x="1820" y="625" as="sourcePoint" />
            <mxPoint x="1820" y="650" as="targetPoint" />
          </mxGeometry>
        </mxCell>
        <mxCell id="CYz07_u8bfLaDcwgtj9p-346" value="SUBSCRIBE" style="shape=rhombus;perimeter=rhombusPerimeter;whiteSpace=wrap;html=1;align=center;" parent="CYz07_u8bfLaDcwgtj9p-1" vertex="1">
          <mxGeometry x="1870" y="450" width="120" height="60" as="geometry" />
        </mxCell>
        <mxCell id="CYz07_u8bfLaDcwgtj9p-347" value="(1,1)&lt;br&gt;Subscriber" style="endArrow=none;html=1;rounded=0;exitX=0;exitY=1;exitDx=0;exitDy=0;shape=link;" parent="CYz07_u8bfLaDcwgtj9p-1" source="CYz07_u8bfLaDcwgtj9p-346" target="CYz07_u8bfLaDcwgtj9p-318" edge="1">
          <mxGeometry relative="1" as="geometry">
            <mxPoint x="1360" y="570" as="sourcePoint" />
            <mxPoint x="1520" y="570" as="targetPoint" />
          </mxGeometry>
        </mxCell>
        <mxCell id="CYz07_u8bfLaDcwgtj9p-348" value="(0,n)&lt;br&gt;Subscribed membership" style="endArrow=none;html=1;rounded=0;exitX=1;exitY=1;exitDx=0;exitDy=0;" parent="CYz07_u8bfLaDcwgtj9p-1" source="CYz07_u8bfLaDcwgtj9p-346" target="CYz07_u8bfLaDcwgtj9p-343" edge="1">
          <mxGeometry relative="1" as="geometry">
            <mxPoint x="1910" y="495" as="sourcePoint" />
            <mxPoint x="1836.3636363636365" y="585" as="targetPoint" />
          </mxGeometry>
        </mxCell>
        <mxCell id="CYz07_u8bfLaDcwgtj9p-349" value="&lt;span style=&quot;border-bottom: 1px dotted&quot;&gt;Character_id&lt;/span&gt;" style="ellipse;whiteSpace=wrap;html=1;align=center;" parent="CYz07_u8bfLaDcwgtj9p-1" vertex="1">
          <mxGeometry x="930" y="495" width="100" height="40" as="geometry" />
        </mxCell>
        <mxCell id="CYz07_u8bfLaDcwgtj9p-351" value="Primary_title" style="ellipse;whiteSpace=wrap;html=1;align=center;" parent="CYz07_u8bfLaDcwgtj9p-1" vertex="1">
          <mxGeometry x="1430" y="720" width="80" height="30" as="geometry" />
        </mxCell>
        <mxCell id="CYz07_u8bfLaDcwgtj9p-352" value="" style="endArrow=none;html=1;rounded=0;entryX=0.75;entryY=1;entryDx=0;entryDy=0;" parent="CYz07_u8bfLaDcwgtj9p-1" source="CYz07_u8bfLaDcwgtj9p-351" target="CYz07_u8bfLaDcwgtj9p-234" edge="1">
          <mxGeometry relative="1" as="geometry">
            <mxPoint x="1370" y="760" as="sourcePoint" />
            <mxPoint x="1370" y="800" as="targetPoint" />
          </mxGeometry>
        </mxCell>
        <mxCell id="CYz07_u8bfLaDcwgtj9p-353" value="Original_title" style="ellipse;whiteSpace=wrap;html=1;align=center;" parent="CYz07_u8bfLaDcwgtj9p-1" vertex="1">
          <mxGeometry x="1450" y="640" width="80" height="30" as="geometry" />
        </mxCell>
        <mxCell id="CYz07_u8bfLaDcwgtj9p-354" value="" style="endArrow=none;html=1;rounded=0;entryX=1;entryY=0.25;entryDx=0;entryDy=0;" parent="CYz07_u8bfLaDcwgtj9p-1" source="CYz07_u8bfLaDcwgtj9p-353" target="CYz07_u8bfLaDcwgtj9p-234" edge="1">
          <mxGeometry relative="1" as="geometry">
            <mxPoint x="1410" y="710" as="sourcePoint" />
            <mxPoint x="1425" y="700" as="targetPoint" />
          </mxGeometry>
        </mxCell>
        <mxCell id="CYz07_u8bfLaDcwgtj9p-355" value="Grade" style="ellipse;whiteSpace=wrap;html=1;align=center;" parent="CYz07_u8bfLaDcwgtj9p-1" vertex="1">
          <mxGeometry x="1210" y="690" width="70" height="30" as="geometry" />
        </mxCell>
        <mxCell id="CYz07_u8bfLaDcwgtj9p-356" value="" style="endArrow=none;html=1;rounded=0;" parent="CYz07_u8bfLaDcwgtj9p-1" source="CYz07_u8bfLaDcwgtj9p-355" target="CYz07_u8bfLaDcwgtj9p-234" edge="1">
          <mxGeometry relative="1" as="geometry">
            <mxPoint x="1226" y="730" as="sourcePoint" />
            <mxPoint x="1241" y="720" as="targetPoint" />
          </mxGeometry>
        </mxCell>
        <mxCell id="CYz07_u8bfLaDcwgtj9p-357" value="Release_date" style="ellipse;whiteSpace=wrap;html=1;align=center;" parent="CYz07_u8bfLaDcwgtj9p-1" vertex="1">
          <mxGeometry x="1183.85" y="730" width="90" height="30" as="geometry" />
        </mxCell>
        <mxCell id="CYz07_u8bfLaDcwgtj9p-358" value="" style="endArrow=none;html=1;rounded=0;entryX=0;entryY=1;entryDx=0;entryDy=0;" parent="CYz07_u8bfLaDcwgtj9p-1" source="CYz07_u8bfLaDcwgtj9p-357" target="CYz07_u8bfLaDcwgtj9p-234" edge="1">
          <mxGeometry relative="1" as="geometry">
            <mxPoint x="1216" y="763.33" as="sourcePoint" />
            <mxPoint x="1300" y="779.9966666666668" as="targetPoint" />
          </mxGeometry>
        </mxCell>
        <mxCell id="CYz07_u8bfLaDcwgtj9p-359" value="&lt;span style=&quot;font-weight: 400&quot;&gt;Running_time&lt;/span&gt;" style="ellipse;whiteSpace=wrap;html=1;align=center;fontStyle=1" parent="CYz07_u8bfLaDcwgtj9p-1" vertex="1">
          <mxGeometry x="1210" y="760" width="90" height="30" as="geometry" />
        </mxCell>
        <mxCell id="CYz07_u8bfLaDcwgtj9p-360" value="" style="endArrow=none;html=1;rounded=0;fontStyle=1;entryX=0.25;entryY=1;entryDx=0;entryDy=0;" parent="CYz07_u8bfLaDcwgtj9p-1" source="CYz07_u8bfLaDcwgtj9p-359" target="CYz07_u8bfLaDcwgtj9p-234" edge="1">
          <mxGeometry relative="1" as="geometry">
            <mxPoint x="1266" y="793.33" as="sourcePoint" />
            <mxPoint x="1350" y="809.9966666666668" as="targetPoint" />
          </mxGeometry>
        </mxCell>
        <mxCell id="CYz07_u8bfLaDcwgtj9p-361" value="Proiduction_country" style="ellipse;whiteSpace=wrap;html=1;align=center;" parent="CYz07_u8bfLaDcwgtj9p-1" vertex="1">
          <mxGeometry x="1236.92" y="800" width="120" height="30" as="geometry" />
        </mxCell>
        <mxCell id="CYz07_u8bfLaDcwgtj9p-362" value="" style="endArrow=none;html=1;rounded=0;" parent="CYz07_u8bfLaDcwgtj9p-1" source="CYz07_u8bfLaDcwgtj9p-361" edge="1">
          <mxGeometry relative="1" as="geometry">
            <mxPoint x="1266" y="763.33" as="sourcePoint" />
            <mxPoint x="1340" y="699" as="targetPoint" />
          </mxGeometry>
        </mxCell>
        <mxCell id="CYz07_u8bfLaDcwgtj9p-363" value="Director" style="ellipse;whiteSpace=wrap;html=1;align=center;" parent="CYz07_u8bfLaDcwgtj9p-1" vertex="1">
          <mxGeometry x="1273.8500000000001" y="720" width="70" height="30" as="geometry" />
        </mxCell>
        <mxCell id="CYz07_u8bfLaDcwgtj9p-364" value="" style="endArrow=none;html=1;rounded=0;entryX=0.25;entryY=1;entryDx=0;entryDy=0;" parent="CYz07_u8bfLaDcwgtj9p-1" source="CYz07_u8bfLaDcwgtj9p-363" target="CYz07_u8bfLaDcwgtj9p-234" edge="1">
          <mxGeometry relative="1" as="geometry">
            <mxPoint x="1196" y="860" as="sourcePoint" />
            <mxPoint x="1364" y="760" as="targetPoint" />
          </mxGeometry>
        </mxCell>
        <mxCell id="CYz07_u8bfLaDcwgtj9p-366" value="" style="endArrow=none;html=1;rounded=0;fontStyle=1;" parent="CYz07_u8bfLaDcwgtj9p-1" source="CYz07_u8bfLaDcwgtj9p-365" target="CYz07_u8bfLaDcwgtj9p-234" edge="1">
          <mxGeometry relative="1" as="geometry">
            <mxPoint x="1206" y="893.33" as="sourcePoint" />
            <mxPoint x="1290" y="909.9966666666668" as="targetPoint" />
          </mxGeometry>
        </mxCell>
        <mxCell id="CYz07_u8bfLaDcwgtj9p-368" value="Year" style="ellipse;whiteSpace=wrap;html=1;align=center;" parent="CYz07_u8bfLaDcwgtj9p-1" vertex="1">
          <mxGeometry x="1400" y="790" width="70" height="30" as="geometry" />
        </mxCell>
        <mxCell id="CYz07_u8bfLaDcwgtj9p-369" value="" style="endArrow=none;html=1;rounded=0;" parent="CYz07_u8bfLaDcwgtj9p-1" source="CYz07_u8bfLaDcwgtj9p-365" target="CYz07_u8bfLaDcwgtj9p-234" edge="1">
          <mxGeometry relative="1" as="geometry">
            <mxPoint x="1276" y="920" as="sourcePoint" />
            <mxPoint x="1360" y="936.6666666666667" as="targetPoint" />
          </mxGeometry>
        </mxCell>
        <mxCell id="CYz07_u8bfLaDcwgtj9p-370" value="Start" style="ellipse;whiteSpace=wrap;html=1;align=center;" parent="CYz07_u8bfLaDcwgtj9p-1" vertex="1">
          <mxGeometry x="1400" y="830" width="70" height="30" as="geometry" />
        </mxCell>
        <mxCell id="CYz07_u8bfLaDcwgtj9p-371" value="" style="endArrow=none;html=1;rounded=0;entryX=0.5;entryY=1;entryDx=0;entryDy=0;" parent="CYz07_u8bfLaDcwgtj9p-1" source="CYz07_u8bfLaDcwgtj9p-370" target="CYz07_u8bfLaDcwgtj9p-368" edge="1">
          <mxGeometry relative="1" as="geometry">
            <mxPoint x="1276" y="993.33" as="sourcePoint" />
            <mxPoint x="1360" y="1009.9966666666668" as="targetPoint" />
          </mxGeometry>
        </mxCell>
        <mxCell id="CYz07_u8bfLaDcwgtj9p-372" value="End" style="ellipse;whiteSpace=wrap;html=1;align=center;" parent="CYz07_u8bfLaDcwgtj9p-1" vertex="1">
          <mxGeometry x="1480" y="790" width="70" height="30" as="geometry" />
        </mxCell>
        <mxCell id="CYz07_u8bfLaDcwgtj9p-373" value="" style="endArrow=none;html=1;rounded=0;entryX=1;entryY=0.5;entryDx=0;entryDy=0;" parent="CYz07_u8bfLaDcwgtj9p-1" source="CYz07_u8bfLaDcwgtj9p-372" target="CYz07_u8bfLaDcwgtj9p-368" edge="1">
          <mxGeometry relative="1" as="geometry">
            <mxPoint x="1356" y="960" as="sourcePoint" />
            <mxPoint x="1358.8584610191622" y="982.6448920688146" as="targetPoint" />
          </mxGeometry>
        </mxCell>
        <mxCell id="CYz07_u8bfLaDcwgtj9p-374" value="Genre" style="ellipse;whiteSpace=wrap;html=1;align=center;" parent="CYz07_u8bfLaDcwgtj9p-1" vertex="1">
          <mxGeometry x="1740" y="806.6600000000001" width="70" height="30" as="geometry" />
        </mxCell>
        <mxCell id="CYz07_u8bfLaDcwgtj9p-375" value="" style="endArrow=none;html=1;rounded=0;" parent="CYz07_u8bfLaDcwgtj9p-1" source="CYz07_u8bfLaDcwgtj9p-374" target="CYz07_u8bfLaDcwgtj9p-238" edge="1">
          <mxGeometry relative="1" as="geometry">
            <mxPoint x="1686" y="763.33" as="sourcePoint" />
            <mxPoint x="1770" y="779.9966666666668" as="targetPoint" />
          </mxGeometry>
        </mxCell>
        <mxCell id="CYz07_u8bfLaDcwgtj9p-376" value="Password" style="ellipse;whiteSpace=wrap;html=1;align=center;" parent="CYz07_u8bfLaDcwgtj9p-1" vertex="1">
          <mxGeometry x="1659" y="635" width="70" height="30" as="geometry" />
        </mxCell>
        <mxCell id="CYz07_u8bfLaDcwgtj9p-377" value="" style="endArrow=none;html=1;rounded=0;" parent="CYz07_u8bfLaDcwgtj9p-1" source="CYz07_u8bfLaDcwgtj9p-376" target="CYz07_u8bfLaDcwgtj9p-318" edge="1">
          <mxGeometry relative="1" as="geometry">
            <mxPoint x="1979" y="630" as="sourcePoint" />
            <mxPoint x="2063" y="646.6666666666669" as="targetPoint" />
          </mxGeometry>
        </mxCell>
        <mxCell id="CYz07_u8bfLaDcwgtj9p-378" value="Rating" style="ellipse;whiteSpace=wrap;html=1;align=center;" parent="CYz07_u8bfLaDcwgtj9p-1" vertex="1">
          <mxGeometry x="1589" y="350.00000000000006" width="70" height="30" as="geometry" />
        </mxCell>
        <mxCell id="CYz07_u8bfLaDcwgtj9p-379" value="" style="endArrow=none;html=1;rounded=0;" parent="CYz07_u8bfLaDcwgtj9p-1" source="CYz07_u8bfLaDcwgtj9p-378" target="CYz07_u8bfLaDcwgtj9p-262" edge="1">
          <mxGeometry relative="1" as="geometry">
            <mxPoint x="1866" y="253.33000000000004" as="sourcePoint" />
            <mxPoint x="1950" y="269.9966666666669" as="targetPoint" />
          </mxGeometry>
        </mxCell>
        <mxCell id="CYz07_u8bfLaDcwgtj9p-380" value="Phone" style="ellipse;whiteSpace=wrap;html=1;align=center;" parent="CYz07_u8bfLaDcwgtj9p-1" vertex="1">
          <mxGeometry x="1690" y="668.33" width="70" height="30" as="geometry" />
        </mxCell>
        <mxCell id="CYz07_u8bfLaDcwgtj9p-381" value="" style="endArrow=none;html=1;rounded=0;entryX=0.25;entryY=1;entryDx=0;entryDy=0;" parent="CYz07_u8bfLaDcwgtj9p-1" source="CYz07_u8bfLaDcwgtj9p-380" target="CYz07_u8bfLaDcwgtj9p-318" edge="1">
          <mxGeometry relative="1" as="geometry">
            <mxPoint x="1696" y="648.33" as="sourcePoint" />
            <mxPoint x="1780" y="664.9966666666669" as="targetPoint" />
          </mxGeometry>
        </mxCell>
        <mxCell id="CYz07_u8bfLaDcwgtj9p-382" value="Name" style="ellipse;whiteSpace=wrap;html=1;align=center;" parent="CYz07_u8bfLaDcwgtj9p-1" vertex="1">
          <mxGeometry x="1860" y="635" width="70" height="30" as="geometry" />
        </mxCell>
        <mxCell id="CYz07_u8bfLaDcwgtj9p-383" value="" style="endArrow=none;html=1;rounded=0;" parent="CYz07_u8bfLaDcwgtj9p-1" source="CYz07_u8bfLaDcwgtj9p-382" target="CYz07_u8bfLaDcwgtj9p-318" edge="1">
          <mxGeometry relative="1" as="geometry">
            <mxPoint x="1740" y="618.33" as="sourcePoint" />
            <mxPoint x="1824" y="634.9966666666669" as="targetPoint" />
          </mxGeometry>
        </mxCell>
        <mxCell id="CYz07_u8bfLaDcwgtj9p-384" value="Sex" style="ellipse;whiteSpace=wrap;html=1;align=center;" parent="CYz07_u8bfLaDcwgtj9p-1" vertex="1">
          <mxGeometry x="1734" y="635" width="70" height="30" as="geometry" />
        </mxCell>
        <mxCell id="CYz07_u8bfLaDcwgtj9p-385" value="" style="endArrow=none;html=1;rounded=0;" parent="CYz07_u8bfLaDcwgtj9p-1" source="CYz07_u8bfLaDcwgtj9p-384" target="CYz07_u8bfLaDcwgtj9p-318" edge="1">
          <mxGeometry relative="1" as="geometry">
            <mxPoint x="1740" y="615" as="sourcePoint" />
            <mxPoint x="1824" y="631.6666666666669" as="targetPoint" />
          </mxGeometry>
        </mxCell>
        <mxCell id="CYz07_u8bfLaDcwgtj9p-386" value="First" style="ellipse;whiteSpace=wrap;html=1;align=center;" parent="CYz07_u8bfLaDcwgtj9p-1" vertex="1">
          <mxGeometry x="1860" y="690" width="70" height="30" as="geometry" />
        </mxCell>
        <mxCell id="CYz07_u8bfLaDcwgtj9p-387" value="" style="endArrow=none;html=1;rounded=0;" parent="CYz07_u8bfLaDcwgtj9p-1" source="CYz07_u8bfLaDcwgtj9p-382" target="CYz07_u8bfLaDcwgtj9p-386" edge="1">
          <mxGeometry relative="1" as="geometry">
            <mxPoint x="1950.2512626584708" y="765.6066017177982" as="sourcePoint" />
            <mxPoint x="1860" y="879.9966666666669" as="targetPoint" />
          </mxGeometry>
        </mxCell>
        <mxCell id="CYz07_u8bfLaDcwgtj9p-388" value="Last" style="ellipse;whiteSpace=wrap;html=1;align=center;" parent="CYz07_u8bfLaDcwgtj9p-1" vertex="1">
          <mxGeometry x="1930" y="680" width="70" height="30" as="geometry" />
        </mxCell>
        <mxCell id="CYz07_u8bfLaDcwgtj9p-389" value="" style="endArrow=none;html=1;rounded=0;" parent="CYz07_u8bfLaDcwgtj9p-1" source="CYz07_u8bfLaDcwgtj9p-382" target="CYz07_u8bfLaDcwgtj9p-388" edge="1">
          <mxGeometry relative="1" as="geometry">
            <mxPoint x="1944.1604897988263" y="739.2625134225968" as="sourcePoint" />
            <mxPoint x="1870" y="889.9966666666669" as="targetPoint" />
          </mxGeometry>
        </mxCell>
        <mxCell id="CYz07_u8bfLaDcwgtj9p-390" value="Birthday" style="ellipse;whiteSpace=wrap;html=1;align=center;" parent="CYz07_u8bfLaDcwgtj9p-1" vertex="1">
          <mxGeometry x="1790" y="665" width="70" height="30" as="geometry" />
        </mxCell>
        <mxCell id="CYz07_u8bfLaDcwgtj9p-391" value="" style="endArrow=none;html=1;rounded=0;" parent="CYz07_u8bfLaDcwgtj9p-1" source="CYz07_u8bfLaDcwgtj9p-318" target="CYz07_u8bfLaDcwgtj9p-390" edge="1">
          <mxGeometry relative="1" as="geometry">
            <mxPoint x="1834.1604897988263" y="649.6325134225968" as="sourcePoint" />
            <mxPoint x="1760" y="800.3666666666669" as="targetPoint" />
          </mxGeometry>
        </mxCell>
        <mxCell id="CYz07_u8bfLaDcwgtj9p-392" value="Episode_name" style="ellipse;whiteSpace=wrap;html=1;align=center;" parent="CYz07_u8bfLaDcwgtj9p-1" vertex="1">
          <mxGeometry x="1250" y="340" width="93.85" height="30" as="geometry" />
        </mxCell>
        <mxCell id="CYz07_u8bfLaDcwgtj9p-393" value="" style="endArrow=none;html=1;rounded=0;" parent="CYz07_u8bfLaDcwgtj9p-1" source="CYz07_u8bfLaDcwgtj9p-392" target="CYz07_u8bfLaDcwgtj9p-285" edge="1">
          <mxGeometry relative="1" as="geometry">
            <mxPoint x="1422.15" y="233.33000000000004" as="sourcePoint" />
            <mxPoint x="1339.996153846154" y="220" as="targetPoint" />
          </mxGeometry>
        </mxCell>
        <mxCell id="CYz07_u8bfLaDcwgtj9p-394" value="Episode_number" style="ellipse;whiteSpace=wrap;html=1;align=center;" parent="CYz07_u8bfLaDcwgtj9p-1" vertex="1">
          <mxGeometry x="1360" y="350" width="100" height="30" as="geometry" />
        </mxCell>
        <mxCell id="CYz07_u8bfLaDcwgtj9p-395" value="" style="endArrow=none;html=1;rounded=0;" parent="CYz07_u8bfLaDcwgtj9p-1" source="CYz07_u8bfLaDcwgtj9p-394" target="CYz07_u8bfLaDcwgtj9p-285" edge="1">
          <mxGeometry relative="1" as="geometry">
            <mxPoint x="1586" y="238.33000000000004" as="sourcePoint" />
            <mxPoint x="1503.8461538461538" y="225" as="targetPoint" />
          </mxGeometry>
        </mxCell>
        <mxCell id="CYz07_u8bfLaDcwgtj9p-396" value="Location" style="ellipse;whiteSpace=wrap;html=1;align=center;" parent="CYz07_u8bfLaDcwgtj9p-1" vertex="1">
          <mxGeometry x="980" y="350.00000000000006" width="70" height="30" as="geometry" />
        </mxCell>
        <mxCell id="CYz07_u8bfLaDcwgtj9p-397" value="" style="endArrow=none;html=1;rounded=0;" parent="CYz07_u8bfLaDcwgtj9p-1" source="CYz07_u8bfLaDcwgtj9p-396" target="CYz07_u8bfLaDcwgtj9p-295" edge="1">
          <mxGeometry relative="1" as="geometry">
            <mxPoint x="1096" y="233.33000000000004" as="sourcePoint" />
            <mxPoint x="1013.8461538461538" y="220" as="targetPoint" />
          </mxGeometry>
        </mxCell>
        <mxCell id="CYz07_u8bfLaDcwgtj9p-398" value="Localized_title" style="ellipse;whiteSpace=wrap;html=1;align=center;" parent="CYz07_u8bfLaDcwgtj9p-1" vertex="1">
          <mxGeometry x="1090" y="310" width="90" height="30" as="geometry" />
        </mxCell>
        <mxCell id="CYz07_u8bfLaDcwgtj9p-399" value="" style="endArrow=none;html=1;rounded=0;" parent="CYz07_u8bfLaDcwgtj9p-1" source="CYz07_u8bfLaDcwgtj9p-398" target="CYz07_u8bfLaDcwgtj9p-295" edge="1">
          <mxGeometry relative="1" as="geometry">
            <mxPoint x="1276" y="223.33000000000004" as="sourcePoint" />
            <mxPoint x="1200.7692307692307" y="210" as="targetPoint" />
          </mxGeometry>
        </mxCell>
        <mxCell id="CYz07_u8bfLaDcwgtj9p-400" value="Local_language" style="ellipse;whiteSpace=wrap;html=1;align=center;" parent="CYz07_u8bfLaDcwgtj9p-1" vertex="1">
          <mxGeometry x="1104.81" y="350" width="110.38" height="30" as="geometry" />
        </mxCell>
        <mxCell id="CYz07_u8bfLaDcwgtj9p-401" value="" style="endArrow=none;html=1;rounded=0;" parent="CYz07_u8bfLaDcwgtj9p-1" source="CYz07_u8bfLaDcwgtj9p-400" target="CYz07_u8bfLaDcwgtj9p-295" edge="1">
          <mxGeometry relative="1" as="geometry">
            <mxPoint x="1285.62" y="263.33000000000004" as="sourcePoint" />
            <mxPoint x="1210.3892307692308" y="250" as="targetPoint" />
          </mxGeometry>
        </mxCell>
        <mxCell id="CYz07_u8bfLaDcwgtj9p-402" value="Character_name" style="ellipse;whiteSpace=wrap;html=1;align=center;" parent="CYz07_u8bfLaDcwgtj9p-1" vertex="1">
          <mxGeometry x="1010" y="525" width="100" height="30" as="geometry" />
        </mxCell>
        <mxCell id="CYz07_u8bfLaDcwgtj9p-403" value="" style="endArrow=none;html=1;rounded=0;" parent="CYz07_u8bfLaDcwgtj9p-1" source="CYz07_u8bfLaDcwgtj9p-402" target="CYz07_u8bfLaDcwgtj9p-269" edge="1">
          <mxGeometry relative="1" as="geometry">
            <mxPoint x="1036" y="598.33" as="sourcePoint" />
            <mxPoint x="960.7692307692307" y="585" as="targetPoint" />
          </mxGeometry>
        </mxCell>
        <mxCell id="CYz07_u8bfLaDcwgtj9p-407" value="" style="endArrow=none;html=1;rounded=0;exitX=0.5;exitY=1;exitDx=0;exitDy=0;" parent="CYz07_u8bfLaDcwgtj9p-1" source="CYz07_u8bfLaDcwgtj9p-349" target="CYz07_u8bfLaDcwgtj9p-269" edge="1">
          <mxGeometry relative="1" as="geometry">
            <mxPoint x="929.6959649289583" y="563.7871754502708" as="sourcePoint" />
            <mxPoint x="960.909090909091" y="585" as="targetPoint" />
          </mxGeometry>
        </mxCell>
        <mxCell id="CYz07_u8bfLaDcwgtj9p-408" value="Actor_name" style="ellipse;whiteSpace=wrap;html=1;align=center;fontStyle=0" parent="CYz07_u8bfLaDcwgtj9p-1" vertex="1">
          <mxGeometry x="1151" y="818.33" width="90" height="31.67" as="geometry" />
        </mxCell>
        <mxCell id="CYz07_u8bfLaDcwgtj9p-409" value="" style="endArrow=none;html=1;rounded=0;" parent="CYz07_u8bfLaDcwgtj9p-1" source="CYz07_u8bfLaDcwgtj9p-290" target="CYz07_u8bfLaDcwgtj9p-408" edge="1">
          <mxGeometry relative="1" as="geometry">
            <mxPoint x="1201" y="800" as="sourcePoint" />
            <mxPoint x="1341" y="820" as="targetPoint" />
          </mxGeometry>
        </mxCell>
        <mxCell id="CYz07_u8bfLaDcwgtj9p-412" value="Actor_age" style="ellipse;whiteSpace=wrap;html=1;align=center;" parent="CYz07_u8bfLaDcwgtj9p-1" vertex="1">
          <mxGeometry x="961" y="820" width="100" height="30" as="geometry" />
        </mxCell>
        <mxCell id="CYz07_u8bfLaDcwgtj9p-413" value="" style="endArrow=none;html=1;rounded=0;" parent="CYz07_u8bfLaDcwgtj9p-1" source="CYz07_u8bfLaDcwgtj9p-412" target="CYz07_u8bfLaDcwgtj9p-290" edge="1">
          <mxGeometry relative="1" as="geometry">
            <mxPoint x="1126.0900000000001" y="913.33" as="sourcePoint" />
            <mxPoint x="1040.9990909090911" y="890" as="targetPoint" />
          </mxGeometry>
        </mxCell>
        <mxCell id="CYz07_u8bfLaDcwgtj9p-414" value="Actor_sex" style="ellipse;whiteSpace=wrap;html=1;align=center;" parent="CYz07_u8bfLaDcwgtj9p-1" vertex="1">
          <mxGeometry x="1050.0900000000001" y="893.3299999999999" width="100" height="30" as="geometry" />
        </mxCell>
        <mxCell id="CYz07_u8bfLaDcwgtj9p-415" value="" style="endArrow=none;html=1;rounded=0;" parent="CYz07_u8bfLaDcwgtj9p-1" source="CYz07_u8bfLaDcwgtj9p-414" target="CYz07_u8bfLaDcwgtj9p-290" edge="1">
          <mxGeometry relative="1" as="geometry">
            <mxPoint x="1236.09" y="966.6600000000001" as="sourcePoint" />
            <mxPoint x="1150.999090909091" y="943.3299999999999" as="targetPoint" />
          </mxGeometry>
        </mxCell>
        <mxCell id="CYz07_u8bfLaDcwgtj9p-416" value="Philmography" style="ellipse;whiteSpace=wrap;html=1;align=center;direction=west;" parent="CYz07_u8bfLaDcwgtj9p-1" vertex="1">
          <mxGeometry x="1121" y="858.33" width="100" height="30" as="geometry" />
        </mxCell>
        <mxCell id="CYz07_u8bfLaDcwgtj9p-417" value="" style="endArrow=none;html=1;rounded=0;" parent="CYz07_u8bfLaDcwgtj9p-1" source="CYz07_u8bfLaDcwgtj9p-416" target="CYz07_u8bfLaDcwgtj9p-290" edge="1">
          <mxGeometry relative="1" as="geometry">
            <mxPoint x="1287" y="943.3299999999999" as="sourcePoint" />
            <mxPoint x="1201.909090909091" y="920" as="targetPoint" />
          </mxGeometry>
        </mxCell>
        <mxCell id="CYz07_u8bfLaDcwgtj9p-365" value="&lt;span style=&quot;font-weight: normal&quot;&gt;Season_number&lt;/span&gt;" style="ellipse;whiteSpace=wrap;html=1;align=center;fontStyle=1" parent="CYz07_u8bfLaDcwgtj9p-1" vertex="1">
          <mxGeometry x="1310" y="770" width="100" height="30" as="geometry" />
        </mxCell>
        <mxCell id="CYz07_u8bfLaDcwgtj9p-420" value="" style="endArrow=none;html=1;rounded=0;entryX=0.75;entryY=1;entryDx=0;entryDy=0;" parent="CYz07_u8bfLaDcwgtj9p-1" source="CYz07_u8bfLaDcwgtj9p-368" target="CYz07_u8bfLaDcwgtj9p-234" edge="1">
          <mxGeometry relative="1" as="geometry">
            <mxPoint x="1308.1522741522258" y="940.0609616264073" as="sourcePoint" />
            <mxPoint x="1359.5958343875373" y="698.3299999999999" as="targetPoint" />
          </mxGeometry>
        </mxCell>
      </root>
    </mxGraphModel>
  </diagram>
</mxfile>
